<mxfile host="app.diagrams.net" modified="2023-09-10T01:25:42.866Z" agent="Mozilla/5.0 (Windows NT 10.0; Win64; x64) AppleWebKit/537.36 (KHTML, like Gecko) Chrome/116.0.0.0 Safari/537.36" etag="2zn1rZR6T4q9vkKo7HVU" version="21.7.4" type="device">
  <diagram name="Página-1" id="ISiSa-5cf7DHXzQJUdAw">
    <mxGraphModel dx="1050" dy="542" grid="1" gridSize="10" guides="1" tooltips="1" connect="1" arrows="1" fold="1" page="1" pageScale="1" pageWidth="827" pageHeight="1169" math="0" shadow="0">
      <root>
        <mxCell id="0" />
        <mxCell id="1" parent="0" />
        <mxCell id="s40dAQwVCw_cSjwLlAr2-1" value="" style="strokeWidth=2;html=1;shape=mxgraph.flowchart.start_2;whiteSpace=wrap;" vertex="1" parent="1">
          <mxGeometry x="100" y="117.5" width="30" height="30" as="geometry" />
        </mxCell>
        <mxCell id="s40dAQwVCw_cSjwLlAr2-2" value="" style="ellipse;shape=doubleEllipse;whiteSpace=wrap;html=1;aspect=fixed;perimeterSpacing=0;strokeWidth=2;" vertex="1" parent="1">
          <mxGeometry x="600" y="547.5" width="40" height="40" as="geometry" />
        </mxCell>
        <mxCell id="s40dAQwVCw_cSjwLlAr2-3" value="Iniciar sesión como Paciente" style="rounded=1;whiteSpace=wrap;html=1;" vertex="1" parent="1">
          <mxGeometry x="160" y="102.5" width="120" height="60" as="geometry" />
        </mxCell>
        <mxCell id="s40dAQwVCw_cSjwLlAr2-4" value="" style="endArrow=classic;html=1;rounded=0;exitX=1;exitY=0.5;exitDx=0;exitDy=0;exitPerimeter=0;entryX=0;entryY=0.5;entryDx=0;entryDy=0;" edge="1" parent="1" source="s40dAQwVCw_cSjwLlAr2-1" target="s40dAQwVCw_cSjwLlAr2-3">
          <mxGeometry width="50" height="50" relative="1" as="geometry">
            <mxPoint x="250" y="422.5" as="sourcePoint" />
            <mxPoint x="300" y="372.5" as="targetPoint" />
          </mxGeometry>
        </mxCell>
        <mxCell id="s40dAQwVCw_cSjwLlAr2-5" value="Completar formulario de registro de cita médica" style="rounded=1;whiteSpace=wrap;html=1;" vertex="1" parent="1">
          <mxGeometry x="370" y="187.5" width="140" height="60" as="geometry" />
        </mxCell>
        <mxCell id="s40dAQwVCw_cSjwLlAr2-6" value="" style="endArrow=classic;html=1;rounded=0;exitX=1;exitY=0.5;exitDx=0;exitDy=0;entryX=0;entryY=0.5;entryDx=0;entryDy=0;" edge="1" parent="1" source="s40dAQwVCw_cSjwLlAr2-3" target="s40dAQwVCw_cSjwLlAr2-21">
          <mxGeometry width="50" height="50" relative="1" as="geometry">
            <mxPoint x="150" y="157.5" as="sourcePoint" />
            <mxPoint x="200" y="157.5" as="targetPoint" />
          </mxGeometry>
        </mxCell>
        <mxCell id="s40dAQwVCw_cSjwLlAr2-7" value="Validador de formulario" style="rhombus;whiteSpace=wrap;html=1;" vertex="1" parent="1">
          <mxGeometry x="190" y="278.75" width="100" height="87.5" as="geometry" />
        </mxCell>
        <mxCell id="s40dAQwVCw_cSjwLlAr2-8" value="" style="endArrow=classic;html=1;rounded=0;exitX=0;exitY=0.5;exitDx=0;exitDy=0;entryX=0.5;entryY=0;entryDx=0;entryDy=0;" edge="1" parent="1" source="s40dAQwVCw_cSjwLlAr2-5" target="s40dAQwVCw_cSjwLlAr2-7">
          <mxGeometry width="50" height="50" relative="1" as="geometry">
            <mxPoint x="320" y="157.5" as="sourcePoint" />
            <mxPoint x="360" y="157.5" as="targetPoint" />
            <Array as="points">
              <mxPoint x="240" y="218" />
            </Array>
          </mxGeometry>
        </mxCell>
        <mxCell id="s40dAQwVCw_cSjwLlAr2-9" value="Notificación de &quot;Error al completar el formulario&quot;" style="rounded=1;whiteSpace=wrap;html=1;" vertex="1" parent="1">
          <mxGeometry x="380" y="292.5" width="120" height="60" as="geometry" />
        </mxCell>
        <mxCell id="s40dAQwVCw_cSjwLlAr2-10" value="No" style="endArrow=classic;html=1;rounded=0;exitX=1;exitY=0.5;exitDx=0;exitDy=0;entryX=0;entryY=0.5;entryDx=0;entryDy=0;" edge="1" parent="1" source="s40dAQwVCw_cSjwLlAr2-7" target="s40dAQwVCw_cSjwLlAr2-9">
          <mxGeometry width="50" height="50" relative="1" as="geometry">
            <mxPoint x="420" y="187.5" as="sourcePoint" />
            <mxPoint x="420" y="217.5" as="targetPoint" />
            <Array as="points" />
          </mxGeometry>
        </mxCell>
        <mxCell id="s40dAQwVCw_cSjwLlAr2-11" value="" style="endArrow=classic;html=1;rounded=0;exitX=0.5;exitY=0;exitDx=0;exitDy=0;entryX=0.5;entryY=1;entryDx=0;entryDy=0;" edge="1" parent="1" source="s40dAQwVCw_cSjwLlAr2-9" target="s40dAQwVCw_cSjwLlAr2-5">
          <mxGeometry width="50" height="50" relative="1" as="geometry">
            <mxPoint x="600" y="147.5" as="sourcePoint" />
            <mxPoint x="550" y="260" as="targetPoint" />
            <Array as="points" />
          </mxGeometry>
        </mxCell>
        <mxCell id="s40dAQwVCw_cSjwLlAr2-12" value="" style="endArrow=classic;html=1;rounded=0;exitX=0.5;exitY=1;exitDx=0;exitDy=0;entryX=0.5;entryY=0;entryDx=0;entryDy=0;" edge="1" parent="1" source="s40dAQwVCw_cSjwLlAr2-7" target="s40dAQwVCw_cSjwLlAr2-14">
          <mxGeometry width="50" height="50" relative="1" as="geometry">
            <mxPoint x="420" y="187.5" as="sourcePoint" />
            <mxPoint x="410" y="317.5" as="targetPoint" />
            <Array as="points" />
          </mxGeometry>
        </mxCell>
        <mxCell id="s40dAQwVCw_cSjwLlAr2-13" value="Si" style="edgeLabel;html=1;align=center;verticalAlign=middle;resizable=0;points=[];" vertex="1" connectable="0" parent="s40dAQwVCw_cSjwLlAr2-12">
          <mxGeometry x="-0.4267" y="1" relative="1" as="geometry">
            <mxPoint as="offset" />
          </mxGeometry>
        </mxCell>
        <mxCell id="s40dAQwVCw_cSjwLlAr2-14" value="Confirmar registro" style="rounded=1;whiteSpace=wrap;html=1;" vertex="1" parent="1">
          <mxGeometry x="180" y="417.5" width="120" height="60" as="geometry" />
        </mxCell>
        <mxCell id="s40dAQwVCw_cSjwLlAr2-15" value="Mensaje de registro completado con exito" style="rounded=1;whiteSpace=wrap;html=1;" vertex="1" parent="1">
          <mxGeometry x="380" y="417.5" width="120" height="60" as="geometry" />
        </mxCell>
        <mxCell id="s40dAQwVCw_cSjwLlAr2-16" value="" style="endArrow=classic;html=1;rounded=0;exitX=1;exitY=0.5;exitDx=0;exitDy=0;entryX=0;entryY=0.5;entryDx=0;entryDy=0;" edge="1" parent="1" source="s40dAQwVCw_cSjwLlAr2-14" target="s40dAQwVCw_cSjwLlAr2-15">
          <mxGeometry width="50" height="50" relative="1" as="geometry">
            <mxPoint x="420" y="187.5" as="sourcePoint" />
            <mxPoint x="420" y="217.5" as="targetPoint" />
            <Array as="points" />
          </mxGeometry>
        </mxCell>
        <mxCell id="s40dAQwVCw_cSjwLlAr2-17" value="Registro de cita médica en base de datos" style="rounded=1;whiteSpace=wrap;html=1;" vertex="1" parent="1">
          <mxGeometry x="375" y="537.5" width="130" height="60" as="geometry" />
        </mxCell>
        <mxCell id="s40dAQwVCw_cSjwLlAr2-18" value="" style="endArrow=classic;html=1;rounded=0;exitX=0.5;exitY=1;exitDx=0;exitDy=0;" edge="1" parent="1" source="s40dAQwVCw_cSjwLlAr2-15" target="s40dAQwVCw_cSjwLlAr2-17">
          <mxGeometry width="50" height="50" relative="1" as="geometry">
            <mxPoint x="590" y="487.5" as="sourcePoint" />
            <mxPoint x="590" y="517.5" as="targetPoint" />
            <Array as="points" />
          </mxGeometry>
        </mxCell>
        <mxCell id="s40dAQwVCw_cSjwLlAr2-19" value="" style="endArrow=classic;html=1;rounded=0;exitX=1;exitY=0.5;exitDx=0;exitDy=0;" edge="1" parent="1" source="s40dAQwVCw_cSjwLlAr2-17" target="s40dAQwVCw_cSjwLlAr2-2">
          <mxGeometry width="50" height="50" relative="1" as="geometry">
            <mxPoint x="590" y="577.5" as="sourcePoint" />
            <mxPoint x="590" y="607.5" as="targetPoint" />
            <Array as="points" />
          </mxGeometry>
        </mxCell>
        <mxCell id="s40dAQwVCw_cSjwLlAr2-20" value="Campos desplegados:&lt;br&gt;- Día&lt;br&gt;- Mes&lt;br&gt;- Año&lt;br&gt;- Nombre del Médico&lt;br&gt;- Motivo de Consulta" style="shape=note;whiteSpace=wrap;html=1;backgroundOutline=1;darkOpacity=0.05;" vertex="1" parent="1">
          <mxGeometry x="600" y="152.5" width="170" height="130" as="geometry" />
        </mxCell>
        <mxCell id="s40dAQwVCw_cSjwLlAr2-21" value="Acceder a Registrar Cita Médica" style="rounded=1;whiteSpace=wrap;html=1;" vertex="1" parent="1">
          <mxGeometry x="380" y="102.5" width="120" height="60" as="geometry" />
        </mxCell>
        <mxCell id="s40dAQwVCw_cSjwLlAr2-22" value="" style="endArrow=classic;html=1;rounded=0;entryX=0.5;entryY=0;entryDx=0;entryDy=0;exitX=0.5;exitY=1;exitDx=0;exitDy=0;" edge="1" parent="1" source="s40dAQwVCw_cSjwLlAr2-21" target="s40dAQwVCw_cSjwLlAr2-5">
          <mxGeometry width="50" height="50" relative="1" as="geometry">
            <mxPoint x="330" y="167.5" as="sourcePoint" />
            <mxPoint x="230" y="272.5" as="targetPoint" />
          </mxGeometry>
        </mxCell>
        <mxCell id="s40dAQwVCw_cSjwLlAr2-23" value="" style="endArrow=none;dashed=1;html=1;dashPattern=1 3;strokeWidth=2;rounded=0;exitX=1;exitY=0.5;exitDx=0;exitDy=0;" edge="1" parent="1" source="s40dAQwVCw_cSjwLlAr2-5" target="s40dAQwVCw_cSjwLlAr2-20">
          <mxGeometry width="50" height="50" relative="1" as="geometry">
            <mxPoint x="490" y="197.5" as="sourcePoint" />
            <mxPoint x="540" y="147.5" as="targetPoint" />
          </mxGeometry>
        </mxCell>
      </root>
    </mxGraphModel>
  </diagram>
</mxfile>
